<?xml version="1.0" encoding="utf-8"?>
<!-- Generator: Adobe Illustrator 17.1.0, SVG Export Plug-In . SVG Version: 6.00 Build 0)  -->
<!DOCTYPE svg PUBLIC "-//W3C//DTD SVG 1.1//EN" "http://www.w3.org/Graphics/SVG/1.1/DTD/svg11.dtd">
<svg version="1.1" id="Layer_1" xmlns="http://www.w3.org/2000/svg" xmlns:xlink="http://www.w3.org/1999/xlink" x="0px" y="0px"
	 viewBox="0 0 670 458" enable-background="new 0 0 670 458" xml:space="preserve">
<line fill="none" stroke="#000000" stroke-width="2" x1="333.8" y1="59.9" x2="153.1" y2="105.5"/>
<line fill="none" stroke="#000000" stroke-width="2" x1="333.8" y1="59.9" x2="491.6" y2="105.5"/>
<line fill="none" stroke="#33A02C" stroke-width="2" x1="136.1" y1="134.5" x2="85" y2="189.6"/>
<line fill="none" stroke="#33A02C" stroke-width="2" x1="175.1" y1="135.5" x2="250.3" y2="189.6"/>
<line fill="none" stroke="#1F78B4" stroke-width="2" x1="462.4" y1="135.8" x2="415.3" y2="190.9"/>
<line fill="none" stroke="#1F78B4" stroke-width="2" x1="509.5" y1="135.8" x2="577.6" y2="193.9"/>
<path fill-rule="evenodd" clip-rule="evenodd" fill="#FFFFFF" d="M86.8,106.5h132.5c2.8,0,5.1,2.2,5.1,4.9v18.7
	c0,2.7-2.3,4.9-5.1,4.9H86.8c-2.8,0-5.1-2.2-5.1-4.9v-18.7C81.7,108.7,84,106.5,86.8,106.5z"/>
<path fill="none" stroke="#33A02C" stroke-width="2" stroke-linejoin="round" d="M86.8,106.5h132.5c2.8,0,5.1,2.2,5.1,4.9v18.7
	c0,2.7-2.3,4.9-5.1,4.9H86.8c-2.8,0-5.1-2.2-5.1-4.9v-18.7C81.7,108.7,84,106.5,86.8,106.5z"/>
<path fill-rule="evenodd" clip-rule="evenodd" fill="none" d="M299.3,30.8h71.1c2.8,0,5,2.2,5,5v19c0,2.8-2.2,5-5,5h-71.1
	c-2.8,0-5-2.2-5-5v-19C294.3,33.1,296.6,30.8,299.3,30.8z"/>
<path fill="#FFFFFF" stroke="#000000" stroke-width="2" stroke-linejoin="round" d="M297.2,30.8h73.1c2.9,0,5.1,2.2,5.1,5v19
	c0,2.8-2.3,5-5.1,5h-73.1c-2.9,0-5.1-2.2-5.1-5v-19C292.1,33.1,294.4,30.8,297.2,30.8z"/>
<path fill-rule="evenodd" clip-rule="evenodd" fill="#FFFFFF" d="M425.4,106.5H562c2.9,0,5.3,2.2,5.3,4.9v18.7
	c0,2.7-2.4,4.9-5.3,4.9H425.4c-2.9,0-5.3-2.2-5.3-4.9v-18.7C420.1,108.7,422.4,106.5,425.4,106.5z"/>
<path fill="none" stroke="#1F78B4" stroke-width="2" stroke-linejoin="round" d="M425.4,106.5H562c2.9,0,5.3,2.2,5.3,4.9v18.7
	c0,2.7-2.4,4.9-5.3,4.9H425.4c-2.9,0-5.3-2.2-5.3-4.9v-18.7C420.1,108.7,422.4,106.5,425.4,106.5z"/>
<path fill-rule="evenodd" clip-rule="evenodd" fill="#FFFFFF" d="M113.3,287.7h92c2.8,0,5,2.2,5,5v18.9c0,2.8-2.2,5-5,5h-92
	c-2.8,0-5-2.2-5-5v-18.9C108.4,289.9,110.6,287.7,113.3,287.7z"/>
<path fill="none" stroke="#B2DF8A" stroke-width="2" stroke-linejoin="round" d="M113.3,287.7h92c2.8,0,5,2.2,5,5v18.9
	c0,2.8-2.2,5-5,5h-92c-2.8,0-5-2.2-5-5v-18.9C108.4,289.9,110.6,287.7,113.3,287.7z"/>
<path fill-rule="evenodd" clip-rule="evenodd" fill="#FFFFFF" stroke="#A6CEE3" d="M419.9,286.9h146.8c3,0,5.3,2.2,5.3,4.9v18.6
	c0,2.7-2.4,4.9-5.3,4.9H419.9c-2.9,0-5.3-2.2-5.3-4.9v-18.6C414.6,289.1,417,286.9,419.9,286.9z"/>
<path fill="none" stroke="#A6CEE3" stroke-width="2" stroke-linejoin="round" d="M419.9,286.9h146.8c3,0,5.3,2.2,5.3,4.9v18.6
	c0,2.7-2.4,4.9-5.3,4.9H419.9c-2.9,0-5.3-2.2-5.3-4.9v-18.6C414.6,289.1,417,286.9,419.9,286.9z"/>
<path fill-rule="evenodd" clip-rule="evenodd" fill="none" stroke="#B2DF8A" stroke-width="3" stroke-miterlimit="10" d="M15.5,193
	h136.7c3.7,0,6.7,2.8,6.7,6.2v23.5c0,3.4-3,6.2-6.7,6.2H15.5c-3.7,0-6.7-2.8-6.7-6.2v-23.5C8.7,195.7,11.7,193,15.5,193z"/>
<path fill="none" stroke="#33A02C" stroke-width="2" stroke-linejoin="round" d="M14.1,191h139.3c3.8,0,6.9,3.1,6.9,6.9V224
	c0,3.8-3.1,6.9-6.9,6.9H14.1c-3.8,0-6.9-3.1-6.9-6.9v-26.1C7.2,194.1,10.2,191,14.1,191z"/>
<path fill-rule="evenodd" clip-rule="evenodd" fill="none" stroke="#B2DF8A" stroke-width="3" stroke-miterlimit="10" d="M346.3,193
	h140.8c3.8,0,6.9,2.8,6.9,6.2v23.5c0,3.4-3.1,6.2-6.9,6.2H346.3c-3.8,0-6.9-2.8-6.9-6.2v-23.5C339.3,195.7,342.4,193,346.3,193z"/>
<path fill="none" stroke="#1F78B4" stroke-width="2" stroke-linejoin="round" d="M344.9,191h143.7c3.9,0,7.1,3.1,7.1,6.9V224
	c0,3.8-3.2,6.9-7.1,6.9H344.9c-3.9,0-7.1-3.1-7.1-6.9v-26.1C337.8,194.1,340.9,191,344.9,191z"/>
<path fill-rule="evenodd" clip-rule="evenodd" fill="none" stroke="#A6CEE3" stroke-width="3" stroke-miterlimit="10" d="
	M176.4,191.9h144.7c4,0,7.1,2.9,7.1,6.6v24.9c0,3.6-3.2,6.6-7.1,6.6H176.4c-4,0-7.1-2.9-7.1-6.6v-24.9
	C169.3,194.8,172.5,191.9,176.4,191.9z"/>
<path fill="none" stroke="#33A02C" stroke-width="2" stroke-linejoin="round" d="M175,189.8h147.7c4,0,7.3,3.3,7.3,7.3v27.7
	c0,4-3.2,7.3-7.3,7.3H175c-4,0-7.3-3.3-7.3-7.3v-27.7C167.7,193,170.9,189.8,175,189.8z"/>
<path fill-rule="evenodd" clip-rule="evenodd" fill="none" stroke="#A6CEE3" stroke-width="3" stroke-miterlimit="10" d="M511.6,193
	h141.8c3.9,0,7,2.8,7,6.2v23.5c0,3.4-3.1,6.2-7,6.2H511.6c-3.9,0-7-2.8-7-6.2v-23.5C504.6,195.7,507.8,193,511.6,193z"/>
<path fill="none" stroke="#1F78B4" stroke-width="2" stroke-linejoin="round" d="M510.2,191h144.7c4,0,7.1,3.1,7.1,6.9V224
	c0,3.8-3.2,6.9-7.1,6.9H510.2c-4,0-7.1-3.1-7.1-6.9v-26.1C503.1,194.1,506.2,191,510.2,191z"/>
<text transform="matrix(1 0 0 1 149.0605 213.9525)" font-family="'ArialMT'" font-size="11.0196">&amp;</text>
<text transform="matrix(1 0 0 1 316.0001 214.9528)" font-family="'ArialMT'" font-size="11.0196">&amp;</text>
<text transform="matrix(1 0 0 1 485.3289 213.9526)" font-family="'ArialMT'" font-size="11.0196">&amp;</text>
<text id="got-positive-mammography-3" transform="matrix(1 0 0 1 11.1874 213.9527)" font-family="'ArialMT'" font-size="11">Got Positive Mammography</text>
<text id="got-positive-mammography-2" transform="matrix(1 0 0 1 174.1682 214.392)" font-family="'ArialMT'" font-size="11">Got Positive Mammography</text>
<text id="got-positive-mammography-1" transform="matrix(1 0 0 1 84.9645 131.1816)" font-family="'ArialMT'" font-size="11">Got Positive Mammography</text>
<text id="got-negative-mammography-3" transform="matrix(1 0 0 1 422.8349 131.182)" font-family="'ArialMT'" font-size="11">Got Negative Mammography</text>
<text id="got-negative-mammography-2" transform="matrix(1 0 0 1 342.8349 214.1819)" font-family="'ArialMT'" font-size="11">Got Negative Mammography</text>
<text id="got-negative-mammography-1" transform="matrix(1 0 0 1 507.0587 214.1819)" font-family="'ArialMT'" font-size="11">Got Negative Mammography</text>
<text id="does-not-have-breast-cancer-3" transform="matrix(1 0 0 1 174.1685 226.1817)" font-family="'ArialMT'" font-size="11">Does Not Have Breast Cancer</text>
<text id="does-not-have-breast-cancer-2" transform="matrix(1 0 0 1 507.0584 226.1821)" font-family="'ArialMT'" font-size="11">Does Not Have Breast Cancer</text>
<text id="does-not-have-breast-cancer-1" transform="matrix(1 0 0 1 421.091 312.1635)" font-family="'ArialMT'" font-size="11">Does Not Have Breast Cancer</text>
<text id="have-breast-cancer-3" transform="matrix(1 0 0 1 11.1876 225.1819)" font-family="'ArialMT'" font-size="11">Have Breast Cancer</text>
<text id="have-breast-cancer-2" transform="matrix(1 0 0 1 109.5077 312.1635)" font-family="'ArialMT'" font-size="11">Have Breast Cancer</text>
<text id="have-breast-cancer-1" transform="matrix(1 0 0 1 342.8349 226.182)" font-family="'ArialMT'" font-size="11">Have Breast Cancer</text>
<text id="woman-tested-1" transform="matrix(1 0 0 1 297.1103 55.3681)" font-family="'ArialMT'" font-size="11">Woman Tested</text>
<text id="woman-1000-1" transform="matrix(1 0 0 1 296.373 41.6621)" font-family="'ArialMT'" font-size="11">1000 Women</text>
<text id="woman-103-1" transform="matrix(1 0 0 1 84.9645 119.9215)" font-family="'ArialMT'" font-size="11">103 Women</text>
<text id="woman-897-1" transform="matrix(1 0 0 1 423.835 119.9215)" font-family="'ArialMT'" font-size="11">897 Women</text>
<text id="woman-990-1" transform="matrix(1 0 0 1 421.091 300.076)" font-family="'ArialMT'" font-size="11">990 Women</text>
<text id="woman-895-1" transform="matrix(1 0 0 1 507.0584 203.2547)" font-family="'ArialMT'" font-size="11">895 Women</text>
<text id="woman-95-1" transform="matrix(1 0 0 1 174.1682 203.4652)" font-family="'ArialMT'" font-size="11">95 Women</text>
<text id="woman-10-1" transform="matrix(1 0 0 1 109.5077 300.0761)" font-family="'ArialMT'" font-size="11">10 Women</text>
<text id="woman-8-1" transform="matrix(1 0 0 1 12.1874 204.2548)" font-family="'ArialMT'" font-size="11">8 Women</text>
<text id="woman-2-1" transform="matrix(1 0 0 1 342.8352 203.4652)" font-family="'ArialMT'" font-size="11">2 Women</text>
<text transform="matrix(1 0 0 1 648.9956 214.1824)" font-family="'ArialMT'" font-size="11.0196">&amp;</text>
<line fill="none" stroke="#B2DF8A" stroke-width="2" x1="88.3" y1="227.9" x2="141.4" y2="286.9"/>
<line fill="none" stroke="#B2DF8A" stroke-width="2" x1="415.3" y1="228.4" x2="172.5" y2="287.7"/>
<line fill="none" stroke="#A6CEE3" stroke-width="2" x1="594.6" y1="227.5" x2="533.5" y2="288.6"/>
<line fill="none" stroke="#A6CEE3" stroke-width="2" x1="269.2" y1="229" x2="462.4" y2="286.9"/>
</svg>
