<?xml version="1.0" encoding="utf-8"?>
<!-- Generator: Adobe Illustrator 17.1.0, SVG Export Plug-In . SVG Version: 6.00 Build 0)  -->
<!DOCTYPE svg PUBLIC "-//W3C//DTD SVG 1.1//EN" "http://www.w3.org/Graphics/SVG/1.1/DTD/svg11.dtd">
<svg version="1.1" id="Layer_1" xmlns="http://www.w3.org/2000/svg" xmlns:xlink="http://www.w3.org/1999/xlink" x="0px" y="0px"
	 viewBox="0 0 670 458" enable-background="new 0 0 670 458" xml:space="preserve">
<text transform="matrix(1 0 0 1 192.7272 74.7641)" font-family="'ArialMT'" font-size="11.0196">&amp;</text>
<text transform="matrix(1 0 0 1 240.6668 149.3028)" font-family="'ArialMT'" font-size="11.0196">&amp;</text>
<text transform="matrix(1 0 0 1 192.727 93.398)" font-family="'ArialMT'" font-size="11.0196">&amp;</text>
<text id="got-positive-mammography-3" transform="matrix(1 0 0 1 205.3129 74.7472)" font-family="'ArialMT'" font-size="11">Got Positive Mammography</text>
<text id="got-positive-mammography-2" transform="matrix(1 0 0 1 253.5016 149.286)" font-family="'ArialMT'" font-size="11">Got Positive Mammography</text>
<text id="got-positive-mammography-1" transform="matrix(1 0 0 1 81.7002 37.6614)" font-family="'ArialMT'" font-size="11">- Got Positive Mammography</text>
<text id="got-negative-mammography-3" transform="matrix(1 0 0 1 81.7003 111.932)" font-family="'ArialMT'" font-size="11">- Got Negative Mammography</text>
<text id="got-negative-mammography-2" transform="matrix(1 0 0 1 205.3129 93.3822)" font-family="'ArialMT'" font-size="11">Got Negative Mammography</text>
<text id="got-negative-mammography-1" transform="matrix(1 0 0 1 253.5017 167.9211)" font-family="'ArialMT'" font-size="11">Got Negative Mammography</text>
<text id="does-not-have-breast-cancer-3" transform="matrix(1 0 0 1 81.7003 149.2863)" font-family="'ArialMT'" font-size="11">- Does Not Have Breast Cancer</text>
<text id="does-not-have-breast-cancer-2" transform="matrix(1 0 0 1 81.7006 167.921)" font-family="'ArialMT'" font-size="11">- Does Not Have Breast Cancer</text>
<text id="does-not-have-breast-cancer-1" transform="matrix(1 0 0 1 81.7006 129.7497)" font-family="'ArialMT'" font-size="11">- Does Not Have Breast Cancer</text>
<text id="have-breast-cancer-3" transform="matrix(1 0 0 1 81.7005 74.7469)" font-family="'ArialMT'" font-size="11">- Have Breast Cancer</text>
<text id="have-breast-cancer-2" transform="matrix(1 0 0 1 81.7004 56.1133)" font-family="'ArialMT'" font-size="11">- Have Breast Cancer</text>
<text id="have-breast-cancer-1" transform="matrix(1 0 0 1 81.7003 93.3816)" font-family="'ArialMT'" font-size="11">- Have Breast Cancer</text>
<text id="woman-tested-1" transform="matrix(1 0 0 1 81.7005 18.8433)" font-family="'ArialMT'" font-size="11">- Woman Tested</text>
<text id="woman-1000-1" transform="matrix(1 0 0 1 10.187 18.8435)" font-family="'ArialMT'" font-size="11">1000 Women</text>
<text id="woman-103-1" transform="matrix(1 0 0 1 10.1869 37.479)" font-family="'ArialMT'" font-size="11">103 Women</text>
<text id="woman-897-1" transform="matrix(1 0 0 1 10.187 111.932)" font-family="'ArialMT'" font-size="11">897 Women</text>
<text id="woman-990-1" transform="matrix(1 0 0 1 10.1871 129.7496)" font-family="'ArialMT'" font-size="11">990 Women</text>
<text id="woman-895-1" transform="matrix(1 0 0 1 10.187 167.9213)" font-family="'ArialMT'" font-size="11">895 Women</text>
<text id="woman-95-1" transform="matrix(1 0 0 1 10.1872 149.286)" font-family="'ArialMT'" font-size="11">95 Women</text>
<text id="woman-10-1" transform="matrix(1 0 0 1 10.1872 56.1134)" font-family="'ArialMT'" font-size="11">10 Women</text>
<text id="woman-8-1" transform="matrix(1 0 0 1 10.1869 74.7475)" font-family="'ArialMT'" font-size="11">8 Women</text>
<text id="woman-2-1" transform="matrix(1 0 0 1 10.1868 93.3823)" font-family="'ArialMT'" font-size="11">2 Women</text>
<text transform="matrix(1 0 0 1 240.6663 167.9374)" font-family="'ArialMT'" font-size="11.0196">&amp;</text>
</svg>
