<?xml version="1.0" encoding="utf-8"?>
<!-- Generator: Adobe Illustrator 18.0.0, SVG Export Plug-In . SVG Version: 6.00 Build 0)  -->
<!DOCTYPE svg PUBLIC "-//W3C//DTD SVG 1.1//EN" "http://www.w3.org/Graphics/SVG/1.1/DTD/svg11.dtd">
<svg version="1.1" xmlns="http://www.w3.org/2000/svg" xmlns:xlink="http://www.w3.org/1999/xlink" x="0px" y="0px"
	 viewBox="0 0 670 458" enable-background="new 0 0 670 458" xml:space="preserve">
<g id="Layer_1" display="none">
	<g display="inline">
		<path fill="#33A02C" d="M136.1,134.5c0,0-0.2,0.3-0.4,0.7c-0.3,0.5-0.7,1.2-1.3,2c-1.1,1.7-2.8,4.2-5,7c-2.1,2.8-4.7,6.1-7.5,9.5
			c-1.4,1.7-2.9,3.4-4.4,5.1c-1.5,1.7-3.1,3.5-4.7,5.2c-1.6,1.7-3.2,3.4-4.8,5.1c-1.6,1.7-3.2,3.3-4.8,4.8c-3.2,3.1-6.2,5.9-8.9,8.2
			c-2.7,2.3-5,4.2-6.6,5.5c-0.8,0.6-1.5,1.1-1.9,1.5c-0.5,0.3-0.7,0.5-0.7,0.5s0.2-0.3,0.4-0.7c0.3-0.5,0.7-1.2,1.3-2
			c1.1-1.7,2.8-4.2,4.9-7c2.1-2.8,4.7-6.1,7.5-9.5c1.4-1.7,2.9-3.4,4.4-5.1c1.5-1.7,3.1-3.5,4.7-5.2c1.6-1.7,3.2-3.4,4.8-5.1
			c1.6-1.7,3.2-3.3,4.8-4.8c3.2-3.1,6.2-5.9,8.9-8.2c2.7-2.3,5-4.2,6.6-5.5c0.8-0.6,1.5-1.1,1.9-1.5
			C135.8,134.7,136.1,134.5,136.1,134.5z"/>
	</g>
	<g display="inline">
		<path fill="#33A02C" d="M175.1,135.5c0,0,0.3,0.2,0.9,0.5c0.6,0.3,1.5,0.8,2.6,1.4c2.3,1.2,5.4,3,9.2,5.2c3.7,2.2,8,4.9,12.6,7.9
			c2.3,1.5,4.6,3.1,6.9,4.7c2.4,1.6,4.7,3.3,7.1,5c2.3,1.7,4.7,3.4,7,5.1c2.3,1.7,4.5,3.4,6.6,5.1c4.3,3.3,8.2,6.6,11.5,9.4
			c3.3,2.8,6,5.3,7.8,7.1c0.9,0.9,1.6,1.6,2.1,2.1c0.5,0.5,0.7,0.7,0.7,0.7s-0.3-0.2-0.9-0.5c-0.6-0.3-1.5-0.8-2.6-1.4
			c-2.3-1.2-5.4-3-9.2-5.2c-3.7-2.2-8-4.9-12.6-7.9c-2.3-1.5-4.6-3.1-6.9-4.7c-2.4-1.6-4.7-3.3-7.1-5c-2.3-1.7-4.7-3.4-7-5.1
			c-2.3-1.7-4.5-3.4-6.6-5.1c-4.3-3.3-8.2-6.6-11.5-9.4c-3.3-2.8-6-5.3-7.8-7.1c-0.9-0.9-1.6-1.6-2.1-2.1
			C175.4,135.8,175.1,135.5,175.1,135.5z"/>
	</g>
	
		<path display="inline" fill-rule="evenodd" clip-rule="evenodd" fill="none" stroke="#B2DF8A" stroke-width="3" stroke-miterlimit="10" d="
		M15.5,193h136.7c3.7,0,6.7,2.8,6.7,6.2v23.5c0,3.4-3,6.2-6.7,6.2H15.5c-3.7,0-6.7-2.8-6.7-6.2v-23.5C8.7,195.7,11.7,193,15.5,193z"
		/>
	<path display="inline" fill="none" stroke="#33A02C" stroke-width="2" stroke-linejoin="round" d="M14.1,191h139.3
		c3.8,0,6.9,3.1,6.9,6.9V224c0,3.8-3.1,6.9-6.9,6.9H14.1c-3.8,0-6.9-3.1-6.9-6.9v-26.1C7.2,194.1,10.2,191,14.1,191z"/>
	
		<path display="inline" fill-rule="evenodd" clip-rule="evenodd" fill="none" stroke="#A6CEE3" stroke-width="3" stroke-miterlimit="10" d="
		M176.4,191.9h144.7c4,0,7.1,2.9,7.1,6.6v24.9c0,3.6-3.2,6.6-7.1,6.6H176.4c-4,0-7.1-2.9-7.1-6.6v-24.9
		C169.3,194.8,172.5,191.9,176.4,191.9z"/>
	<path display="inline" fill="none" stroke="#33A02C" stroke-width="2" stroke-linejoin="round" d="M175,189.8h147.7
		c4,0,7.3,3.3,7.3,7.3v27.7c0,4-3.2,7.3-7.3,7.3H175c-4,0-7.3-3.3-7.3-7.3v-27.7C167.7,193,170.9,189.8,175,189.8z"/>
	<g display="inline">
		<path fill="#B2DF8A" d="M88.3,227.9c0,0,0.3,0.2,0.7,0.5c0.5,0.4,1.2,0.9,2,1.6c1.7,1.4,4.1,3.4,6.9,5.9c2.8,2.5,5.9,5.5,9.2,8.8
			c1.6,1.7,3.3,3.4,5,5.2c1.7,1.8,3.3,3.6,5,5.4c1.6,1.9,3.3,3.7,4.9,5.6c1.6,1.8,3.1,3.7,4.6,5.5c2.9,3.6,5.6,7,7.8,10.1
			c2.2,3,4,5.6,5.2,7.4c0.6,0.9,1.1,1.7,1.4,2.2c0.3,0.5,0.5,0.8,0.5,0.8s-0.3-0.2-0.7-0.5c-0.5-0.4-1.2-0.9-2-1.6
			c-1.7-1.4-4.1-3.4-6.9-5.9c-2.8-2.5-5.9-5.5-9.2-8.8c-1.6-1.7-3.3-3.4-5-5.2c-1.7-1.8-3.3-3.6-5-5.4c-1.6-1.9-3.3-3.7-4.9-5.6
			c-1.6-1.8-3.1-3.7-4.6-5.5c-2.9-3.6-5.6-7-7.8-10.1c-2.2-3-4-5.6-5.2-7.4c-0.6-0.9-1.1-1.7-1.4-2.2
			C88.4,228.2,88.3,227.9,88.3,227.9z"/>
	</g>
	<g display="inline">
		<path fill="#B2DF8A" d="M415.3,228.4c0,0-0.9,0.3-2.7,0.8c-1.8,0.5-4.3,1.3-7.6,2.3c-3.3,1-7.3,2.2-11.8,3.5
			c-4.6,1.3-9.7,2.8-15.4,4.3c-5.6,1.6-11.8,3.3-18.3,5c-6.5,1.7-13.3,3.6-20.4,5.4c-7.1,1.8-14.4,3.8-21.9,5.6
			c-7.5,1.9-15,3.7-22.6,5.6c-7.6,1.8-15.2,3.6-22.7,5.4c-7.5,1.8-14.9,3.4-22,5.1c-7.1,1.7-14,3.2-20.6,4.6
			c-6.6,1.5-12.8,2.8-18.5,4c-5.7,1.2-11,2.3-15.7,3.2c-4.7,1-8.7,1.7-12.1,2.4c-3.4,0.7-6,1.1-7.8,1.5c-1.8,0.3-2.8,0.5-2.8,0.5
			s0.9-0.3,2.7-0.8c1.8-0.5,4.3-1.3,7.6-2.3c3.3-1,7.3-2.2,11.8-3.5c4.6-1.3,9.7-2.8,15.4-4.3c5.6-1.6,11.8-3.3,18.3-5
			c6.5-1.7,13.3-3.6,20.4-5.4c7.1-1.8,14.4-3.8,21.9-5.6c7.5-1.8,15-3.7,22.6-5.6c7.6-1.8,15.2-3.6,22.7-5.4
			c7.5-1.8,14.9-3.4,22-5.1c7.1-1.7,14.1-3.2,20.6-4.6c6.6-1.5,12.8-2.8,18.5-4c5.7-1.2,11-2.3,15.7-3.2c4.7-1,8.7-1.7,12.1-2.4
			c3.4-0.7,6-1.1,7.8-1.5C414.3,228.6,415.3,228.4,415.3,228.4z"/>
	</g>
	<g display="inline">
		<path fill="#A6CEE3" d="M594.6,227.5c0,0-0.2,0.3-0.6,0.8c-0.4,0.5-0.9,1.3-1.6,2.2c-1.4,1.9-3.5,4.6-6.1,7.7
			c-2.6,3.1-5.7,6.7-9.1,10.4c-1.7,1.9-3.5,3.8-5.3,5.7c-1.8,1.9-3.7,3.8-5.6,5.8c-1.9,1.9-3.8,3.8-5.8,5.6
			c-1.9,1.8-3.8,3.6-5.7,5.3c-3.7,3.4-7.3,6.5-10.4,9.1c-3.1,2.6-5.8,4.7-7.7,6.1c-0.9,0.7-1.7,1.3-2.2,1.6
			c-0.5,0.4-0.8,0.6-0.8,0.6s0.2-0.3,0.6-0.8c0.4-0.5,0.9-1.3,1.6-2.2c1.4-1.9,3.5-4.6,6.1-7.7c2.6-3.1,5.7-6.7,9.1-10.4
			c1.7-1.9,3.5-3.8,5.3-5.7c1.8-1.9,3.7-3.8,5.6-5.8c1.9-1.9,3.8-3.8,5.8-5.6c1.9-1.8,3.8-3.6,5.7-5.3c3.7-3.4,7.3-6.5,10.4-9.1
			c3.1-2.6,5.8-4.7,7.7-6.1c0.9-0.7,1.7-1.3,2.2-1.6C594.4,227.7,594.6,227.5,594.6,227.5z"/>
	</g>
	<g display="inline">
		<path fill="#A6CEE3" d="M269.2,229c0,0,0.8,0.2,2.2,0.5c1.4,0.3,3.6,0.8,6.3,1.4c2.7,0.6,6,1.4,9.7,2.3c3.7,0.9,7.9,2,12.5,3.2
			c4.6,1.2,9.5,2.5,14.8,3.9c5.2,1.4,10.8,2.9,16.4,4.5c5.7,1.6,11.6,3.2,17.5,5c6,1.7,12,3.5,18.1,5.3c6,1.8,12.1,3.7,18,5.5
			c5.9,1.8,11.7,3.7,17.4,5.5c5.6,1.8,11.1,3.6,16.2,5.3c5.2,1.7,10,3.3,14.5,4.9c4.5,1.5,8.6,3,12.2,4.3c3.6,1.3,6.8,2.4,9.4,3.4
			c2.6,0.9,4.6,1.7,6,2.2c1.4,0.5,2.1,0.8,2.1,0.8s-0.8-0.2-2.2-0.5c-1.4-0.3-3.6-0.8-6.3-1.4c-2.7-0.6-6-1.4-9.7-2.3
			c-3.7-0.9-7.9-2-12.5-3.2c-4.6-1.2-9.5-2.5-14.8-3.9c-5.2-1.4-10.8-2.9-16.4-4.5c-5.7-1.6-11.6-3.2-17.5-5c-6-1.8-12-3.5-18-5.3
			c-6-1.8-12.1-3.7-18-5.5c-5.9-1.8-11.7-3.7-17.4-5.5c-5.6-1.8-11.1-3.6-16.2-5.3c-5.2-1.7-10-3.3-14.5-4.9
			c-4.5-1.5-8.6-3-12.2-4.3c-3.6-1.3-6.8-2.4-9.4-3.4c-2.6-0.9-4.6-1.7-6-2.2C269.9,229.3,269.2,229,269.2,229z"/>
	</g>
	<g display="inline">
		<path d="M507.1,315.3c0,0-0.7,0.3-2,0.8c-1.3,0.5-3.2,1.2-5.6,2.1c-2.4,0.9-5.4,2-8.8,3.2c-3.4,1.2-7.2,2.5-11.4,4
			c-4.2,1.4-8.7,3-13.5,4.5c-4.8,1.6-9.9,3.3-15.2,4.9c-5.3,1.6-10.7,3.4-16.2,5.1c-5.5,1.7-11.2,3.4-16.8,5.1
			c-5.7,1.6-11.3,3.3-16.9,4.9c-5.6,1.6-11.1,3.1-16.4,4.6c-5.3,1.5-10.5,2.8-15.4,4.1c-4.9,1.3-9.5,2.5-13.8,3.5
			c-4.3,1.1-8.2,2-11.7,2.9c-3.5,0.8-6.6,1.5-9.1,2.1c-2.5,0.6-4.5,1-5.9,1.3c-1.4,0.3-2.1,0.4-2.1,0.4s0.7-0.3,2-0.8
			c1.3-0.5,3.2-1.2,5.6-2.1c2.4-0.9,5.4-2,8.8-3.2c3.4-1.2,7.2-2.6,11.4-4c4.2-1.4,8.7-3,13.5-4.5c4.8-1.6,9.9-3.3,15.2-4.9
			c5.3-1.6,10.7-3.4,16.2-5.1c5.6-1.7,11.2-3.4,16.8-5c5.7-1.6,11.3-3.3,16.9-4.9c5.6-1.6,11.1-3.1,16.4-4.6
			c5.3-1.5,10.5-2.8,15.4-4.1c4.9-1.3,9.5-2.5,13.8-3.5c4.3-1.1,8.2-2,11.7-2.9c3.5-0.8,6.6-1.5,9.1-2.1c2.5-0.6,4.5-1,5.9-1.3
			C506.3,315.4,507.1,315.3,507.1,315.3z"/>
	</g>
	<g display="inline">
		<path d="M159,316.5c0,0,0.7,0.1,2,0.4c1.3,0.3,3.1,0.7,5.5,1.2c2.4,0.6,5.2,1.2,8.5,2c3.3,0.8,7,1.7,11,2.8c4,1,8.4,2.2,13,3.4
			c4.6,1.3,9.4,2.6,14.4,4c5,1.4,10.2,2.9,15.4,4.5c5.2,1.6,10.5,3.2,15.8,4.8c5.3,1.6,10.6,3.3,15.8,4.9c5.2,1.6,10.3,3.4,15.2,5
			c4.9,1.6,9.7,3.2,14.2,4.8c4.5,1.5,8.8,3,12.7,4.4c3.9,1.4,7.5,2.7,10.7,3.9c3.2,1.2,5.9,2.2,8.2,3.1c2.3,0.9,4,1.6,5.2,2.1
			c1.2,0.5,1.9,0.7,1.9,0.7s-0.7-0.1-2-0.4c-1.3-0.3-3.1-0.7-5.5-1.2c-2.4-0.6-5.2-1.2-8.5-2c-3.3-0.8-7-1.7-11-2.8
			c-4-1-8.4-2.2-13-3.4c-4.6-1.3-9.4-2.6-14.4-4c-5-1.4-10.2-2.9-15.4-4.4c-5.2-1.5-10.5-3.2-15.8-4.8c-5.3-1.7-10.6-3.3-15.8-5
			c-5.2-1.6-10.3-3.3-15.2-4.9c-4.9-1.6-9.7-3.2-14.2-4.8c-4.5-1.5-8.7-3-12.7-4.4c-3.9-1.4-7.5-2.7-10.7-3.9
			c-3.2-1.2-5.9-2.2-8.2-3.1c-2.3-0.9-4-1.6-5.3-2.1C159.6,316.7,159,316.5,159,316.5z"/>
	</g>
	<path display="inline" fill-rule="evenodd" clip-rule="evenodd" fill="none" d="M291.3,368.5h71.1c2.8,0,5,2.2,5,5v19
		c0,2.8-2.2,5-5,5h-71.1c-2.8,0-5-2.2-5-5v-19C286.3,370.7,288.6,368.5,291.3,368.5z"/>
	<path display="inline" fill="#FFFFFF" stroke="#000000" stroke-width="2" stroke-linejoin="round" d="M293.4,368.5H369
		c2.9,0,5.3,2.2,5.3,5v19c0,2.8-2.4,5-5.3,5h-75.6c-2.9,0-5.3-2.2-5.3-5v-19C288.1,370.7,290.5,368.5,293.4,368.5z"/>
	<path display="inline" fill="none" stroke="#B2DF8A" stroke-width="3" stroke-linecap="round" d="M86.8,287.8h132.5
		c2.8,0,5.1,2.2,5.1,4.9v18.7c0,2.7-2.3,4.9-5.1,4.9H86.8c-2.8,0-5.1-2.2-5.1-4.9v-18.7C81.7,290,84,287.8,86.8,287.8z"/>
	<path display="inline" fill="none" stroke="#A6CEE3" stroke-width="3" d="M425.4,287.2H562c2.9,0,5.3,2.2,5.3,4.9v18.7
		c0,2.7-2.4,4.9-5.3,4.9H425.4c-2.9,0-5.3-2.2-5.3-4.9v-18.7C420.1,289.4,422.4,287.2,425.4,287.2z"/>
</g>
<g id="Step_2">
	<g>
		<path fill="#1F78B4" d="M462,135.5c0,0-0.1,0.3-0.4,0.7c-0.3,0.5-0.6,1.2-1.1,2.1c-1,1.8-2.4,4.2-4.3,7.1
			c-1.9,2.9-4.2,6.1-6.7,9.5c-1.3,1.7-2.6,3.4-4,5.2c-1.4,1.7-2.9,3.5-4.3,5.2c-1.5,1.7-3,3.4-4.5,5.1c-1.5,1.7-3,3.3-4.5,4.8
			c-3,3.1-5.8,5.8-8.4,8.1c-2.5,2.3-4.8,4.1-6.3,5.4c-0.8,0.6-1.4,1.1-1.9,1.4c-0.4,0.3-0.7,0.5-0.7,0.5s0.1-0.3,0.4-0.7
			c0.3-0.5,0.6-1.2,1.1-2.1c1-1.8,2.4-4.2,4.3-7.1c1.9-2.9,4.2-6.1,6.7-9.5c1.3-1.7,2.6-3.4,4-5.2c1.4-1.7,2.9-3.5,4.3-5.2
			c1.5-1.7,3-3.4,4.5-5.1c1.5-1.7,3-3.3,4.5-4.8c3-3.1,5.8-5.8,8.4-8.1c2.5-2.3,4.7-4.1,6.3-5.4c0.8-0.6,1.4-1.1,1.9-1.4
			C461.7,135.7,462,135.5,462,135.5z"/>
	</g>
	<g>
		<path fill="#1F78B4" d="M509.1,135.5c0,0,0.3,0.2,0.8,0.5c0.5,0.3,1.3,0.8,2.3,1.4c2,1.2,4.8,3.1,8.1,5.4c3.3,2.3,7,5.1,10.9,8.1
			c2,1.5,4,3.1,6,4.8c2,1.6,4.1,3.4,6.1,5.1c2,1.7,4,3.5,6,5.2c2,1.7,3.9,3.5,5.7,5.2c3.6,3.4,7,6.7,9.7,9.5c2.8,2.9,5,5.3,6.6,7.1
			c0.8,0.9,1.4,1.6,1.8,2.1c0.4,0.5,0.6,0.8,0.6,0.8s-0.3-0.2-0.8-0.5c-0.5-0.3-1.3-0.8-2.3-1.4c-2-1.2-4.8-3.1-8.1-5.4
			c-3.3-2.3-7-5.1-10.9-8.1c-2-1.5-4-3.1-6-4.8c-2-1.6-4.1-3.4-6.1-5.1c-2-1.7-4-3.5-6-5.2c-2-1.7-3.9-3.5-5.7-5.2
			c-3.6-3.4-7-6.7-9.7-9.5c-2.8-2.9-5-5.3-6.6-7.1c-0.8-0.9-1.4-1.6-1.8-2.1C509.3,135.8,509.1,135.5,509.1,135.5z"/>
	</g>
	<path fill="#B2DF8A" stroke="#1F78B4" stroke-width="3" stroke-linejoin="round" d="M344.4,190.7h143.7c3.9,0,7.1,3.1,7.1,6.9v26.1
		c0,3.8-3.2,6.9-7.1,6.9H344.4c-3.9,0-7.1-3.1-7.1-6.9v-26.1C337.4,193.8,340.5,190.7,344.4,190.7z"/>
	<path fill="#A6CEE3" stroke="#1F78B4" stroke-width="3" stroke-linejoin="round" d="M509.8,190.7h144.7c4,0,7.1,3.1,7.1,6.9v26.1
		c0,3.8-3.2,6.9-7.1,6.9H509.8c-4,0-7.1-3.1-7.1-6.9v-26.1C502.6,193.8,505.8,190.7,509.8,190.7z"/>
</g>
<g id="Step1" display="none">
	<path display="inline" fill="none" stroke="#1F78B4" stroke-width="3" stroke-linejoin="round" d="M425.4,106.1H562
		c2.9,0,5.3,2.2,5.3,4.9v18.7c0,2.7-2.4,4.9-5.3,4.9H425.4c-2.9,0-5.3-2.2-5.3-4.9V111C420.1,108.2,422.4,106.1,425.4,106.1z"/>
	<path display="inline" fill="none" stroke="#33A02C" stroke-width="3" stroke-linejoin="round" d="M86.8,106.1h132.5
		c2.8,0,5.1,2.2,5.1,4.9v18.7c0,2.7-2.3,4.9-5.1,4.9H86.8c-2.8,0-5.1-2.2-5.1-4.9V111C81.7,108.2,84,106.1,86.8,106.1z"/>
	<g display="inline">
		<path d="M333.8,59.4c0,0,0.6,0.1,1.8,0.3c1.2,0.2,2.9,0.6,5.1,1c2.2,0.5,4.9,1,7.9,1.7c3.1,0.7,6.5,1.5,10.3,2.4
			c3.8,0.9,7.8,1.9,12.1,3c4.3,1.1,8.8,2.2,13.4,3.5c4.6,1.3,9.5,2.5,14.3,3.9c4.9,1.4,9.8,2.8,14.7,4.2c4.9,1.4,9.9,2.9,14.7,4.3
			c4.8,1.4,9.6,3,14.2,4.4c4.6,1.4,9,2.9,13.2,4.2c4.2,1.3,8.2,2.7,11.8,3.9c3.7,1.2,7,2.4,9.9,3.5c3,1,5.5,2,7.6,2.8
			c2.1,0.8,3.8,1.4,4.9,1.9c1.1,0.4,1.7,0.7,1.7,0.7s-0.6-0.1-1.8-0.3c-1.2-0.2-2.9-0.6-5.1-1c-2.2-0.5-4.9-1-7.9-1.7
			c-3.1-0.7-6.5-1.5-10.3-2.4c-3.8-0.9-7.8-1.9-12.1-3c-4.3-1.1-8.8-2.2-13.4-3.5c-4.6-1.3-9.5-2.5-14.3-3.9
			c-4.9-1.3-9.8-2.8-14.7-4.2c-4.9-1.5-9.8-2.9-14.7-4.4c-4.9-1.4-9.6-3-14.2-4.4c-4.6-1.4-9-2.9-13.2-4.2
			c-4.2-1.3-8.2-2.7-11.8-3.9c-3.7-1.2-7-2.4-9.9-3.5c-3-1-5.5-2-7.6-2.8c-2.1-0.8-3.8-1.4-4.9-1.9
			C334.4,59.7,333.8,59.4,333.8,59.4z"/>
	</g>
	<g display="inline">
		<path d="M333.8,59.4c0,0-0.7,0.2-2,0.7c-1.3,0.4-3.2,1.1-5.6,1.9c-2.4,0.8-5.4,1.7-8.8,2.8c-3.4,1.1-7.2,2.2-11.4,3.5
			c-4.2,1.2-8.7,2.6-13.6,4c-4.8,1.4-9.9,2.8-15.2,4.2c-5.3,1.4-10.7,3-16.3,4.4c-5.6,1.4-11.2,2.9-16.8,4.4
			c-5.7,1.4-11.3,2.8-16.9,4.2c-5.6,1.4-11.1,2.6-16.4,3.9c-5.3,1.3-10.5,2.4-15.4,3.5c-4.9,1.1-9.5,2.1-13.8,2.9
			c-4.3,0.9-8.2,1.7-11.7,2.4c-3.5,0.7-6.5,1.2-9,1.7c-2.5,0.5-4.5,0.8-5.8,1c-1.4,0.2-2.1,0.3-2.1,0.3s0.7-0.2,2-0.7
			c1.3-0.4,3.2-1.1,5.6-1.9c2.4-0.8,5.4-1.7,8.8-2.8c3.4-1.1,7.2-2.2,11.4-3.5c4.2-1.3,8.7-2.6,13.6-4c4.8-1.4,9.9-2.8,15.2-4.2
			c5.3-1.4,10.7-2.9,16.3-4.4c5.6-1.4,11.2-2.9,16.8-4.3c5.7-1.4,11.3-2.8,16.9-4.2c5.6-1.4,11.1-2.6,16.4-3.9
			c5.3-1.3,10.5-2.4,15.4-3.5c4.9-1.1,9.5-2.1,13.8-2.9c4.3-0.9,8.2-1.7,11.7-2.4c3.5-0.7,6.5-1.2,9-1.7c2.5-0.5,4.5-0.8,5.8-1
			C333.1,59.6,333.8,59.4,333.8,59.4z"/>
	</g>
	<path display="inline" fill="#FFFFFF" stroke="#000000" stroke-width="2" stroke-linejoin="round" d="M297.2,30.4h73.1
		c2.9,0,5.1,2.2,5.1,5v19c0,2.8-2.3,5-5.1,5h-73.1c-2.9,0-5.1-2.2-5.1-5v-19C292.1,32.6,294.4,30.4,297.2,30.4z"/>
</g>
</svg>
