<?xml version="1.0" encoding="utf-8"?>
<!-- Generator: Adobe Illustrator 18.0.0, SVG Export Plug-In . SVG Version: 6.00 Build 0)  -->
<!DOCTYPE svg PUBLIC "-//W3C//DTD SVG 1.0//EN" "http://www.w3.org/TR/2001/REC-SVG-20010904/DTD/svg10.dtd" [
	<!ENTITY ns_flows "http://ns.adobe.com/Flows/1.0/">
	<!ENTITY ns_extend "http://ns.adobe.com/Extensibility/1.0/">
	<!ENTITY ns_ai "http://ns.adobe.com/AdobeIllustrator/10.0/">
	<!ENTITY ns_graphs "http://ns.adobe.com/Graphs/1.0/">
	<!ENTITY ns_vars "http://ns.adobe.com/Variables/1.0/">
	<!ENTITY ns_imrep "http://ns.adobe.com/ImageReplacement/1.0/">
	<!ENTITY ns_sfw "http://ns.adobe.com/SaveForWeb/1.0/">
	<!ENTITY ns_custom "http://ns.adobe.com/GenericCustomNamespace/1.0/">
	<!ENTITY ns_adobe_xpath "http://ns.adobe.com/XPath/1.0/">
]>
<svg version="1.0" xmlns:x="&ns_extend;" xmlns:i="&ns_ai;" xmlns:graph="&ns_graphs;"
	 xmlns="http://www.w3.org/2000/svg" xmlns:xlink="http://www.w3.org/1999/xlink" xmlns:a="http://ns.adobe.com/AdobeSVGViewerExtensions/3.0/"
	 x="0px" y="0px" width="670px" height="458px" viewBox="0 0 670 458" style="enable-background:new 0 0 670 458;"
	 xml:space="preserve">
<metadata>
	<sfw  xmlns="&ns_sfw;">
		<slices></slices>
		<sliceSourceBounds  width="1160.479" y="-169.5612" x="-326.812" height="369.1817" bottomLeftOrigin="true"></sliceSourceBounds>
	</sfw>
</metadata>
<g id="Layer_1" style="display:none;">
	<g style="display:inline;">
		<path style="fill:#33A02C;" d="M136.0508,134.5298c0,0-0.1558,0.2558-0.448,0.7354c-0.3046,0.468-0.7251,1.1789-1.3119,2.0356
			c-1.1465,1.7387-2.8405,4.1706-4.9534,7.0146c-2.1201,2.8373-4.6734,6.0735-7.5055,9.4513
			c-1.4141,1.6908-2.8946,3.42-4.4292,5.1492c-1.5223,1.7405-3.1119,3.4687-4.6959,5.202c-1.6084,1.7107-3.2086,3.429-4.8296,5.0781
			c-1.6037,1.665-3.2223,3.2663-4.7977,4.8075c-3.1534,3.08-6.1877,5.8701-8.8578,8.1975c-2.677,2.3209-4.976,4.1919-6.6245,5.4651
			c-0.8108,0.6491-1.4881,1.1218-1.9325,1.4602c-0.4567,0.3271-0.7002,0.5015-0.7002,0.5015s0.1556-0.256,0.4472-0.7361
			c0.3039-0.4687,0.7242-1.1797,1.3102-2.0372c1.1452-1.7399,2.8374-4.1735,4.9497-7.018c2.1193-2.8381,4.6725-6.0743,7.5058-9.4511
			c1.418-1.6872,2.8925-3.4219,4.4318-5.1467c1.5221-1.7408,3.1147-3.4661,4.6992-5.199c1.6089-1.7103,3.2122-3.4258,4.8329-5.0751
			c1.6084-1.6607,3.221-3.2674,4.8003-4.8051c3.1545-3.0789,6.1888-5.8692,8.858-8.1973c2.6765-2.3214,4.9736-4.1941,6.6208-5.4686
			c0.81-0.6498,1.4871-1.1227,1.9309-1.4618C135.8076,134.7045,136.0508,134.5298,136.0508,134.5298z"/>
	</g>
	<g style="display:inline;">
		<path style="fill:#33A02C;" d="M175.1191,135.5329c0,0,0.3283,0.1629,0.944,0.4683c0.6057,0.3192,1.5151,0.7583,2.6312,1.3744
			c2.2539,1.2021,5.4291,2.9814,9.1755,5.2053c3.7407,2.2318,8.0412,4.924,12.572,7.9153c2.267,1.4934,4.5942,3.0579,6.9348,4.6811
			c2.3504,1.6096,4.7038,3.2925,7.0616,4.9692c2.3384,1.7037,4.6833,3.3984,6.9552,5.1171c2.2855,1.6997,4.5027,3.4171,6.6412,5.089
			c4.2748,3.3468,8.192,6.5713,11.4945,9.4118c3.2969,2.8482,5.9901,5.297,7.844,7.0547c0.9377,0.864,1.6424,1.5872,2.1367,2.0612
			c0.4846,0.4875,0.743,0.7475,0.743,0.7475s-0.3285-0.1626-0.9446-0.4675c-0.6063-0.3184-1.5158-0.7573-2.6325-1.3725
			c-2.255-1.2006-5.4316-2.978-9.1785-5.2012c-3.7413-2.2309-8.0419-4.923-12.5718-7.9155
			c-2.2639-1.4977-4.5958-3.0557-6.9328-4.684c-2.3506-1.6093-4.7016-3.2956-7.059-4.9728
			c-2.338-1.7042-4.6805-3.4023-6.9525-5.1208c-2.2818-1.7049-4.5037-3.4156-6.6391-5.0919
			c-4.2739-3.348-8.1912-6.5724-11.4943-9.4121c-3.2973-2.8476-5.992-5.2944-7.8469-7.0506
			c-0.9383-0.8631-1.6432-1.5862-2.138-2.0594C175.3777,135.7926,175.1191,135.5329,175.1191,135.5329z"/>
	</g>
	
		<path style="display:inline;fill-rule:evenodd;clip-rule:evenodd;fill:none;stroke:#B2DF8A;stroke-width:3;stroke-miterlimit:10;" d="
		M15.4664,192.9837h136.7407c3.7353,0,6.7455,2.7644,6.7455,6.1948v23.5376c0,3.4303-3.0101,6.1948-6.7455,6.1948H15.4664
		c-3.7402,0-6.7455-2.7645-6.7455-6.1948v-23.5376C8.721,195.7481,11.7262,192.9837,15.4664,192.9837z"/>
	<path style="display:inline;fill:none;stroke:#33A02C;stroke-width:2;stroke-linejoin:round;" d="M14.0602,190.9878h139.3103
		c3.8055,0,6.8722,3.0667,6.8722,6.8722v26.1115c0,3.8055-3.0667,6.8722-6.8722,6.8722H14.0602
		c-3.8105,0-6.8722-3.0668-6.8722-6.8722V197.86C7.188,194.0545,10.2497,190.9878,14.0602,190.9878z"/>
	
		<path style="display:inline;fill-rule:evenodd;clip-rule:evenodd;fill:none;stroke:#A6CEE3;stroke-width:3;stroke-miterlimit:10;" d="
		M176.4278,191.9049h144.7126c3.9583,0,7.14,2.9256,7.14,6.5559v24.9099c0,3.6303-3.1817,6.5559-7.14,6.5559H176.4278
		c-3.9531,0-7.1387-2.9256-7.1387-6.5559v-24.9099C169.289,194.8304,172.4747,191.9049,176.4278,191.9049z"/>
	<path style="display:inline;fill:none;stroke:#33A02C;stroke-width:2;stroke-linejoin:round;" d="M174.9511,189.7925H322.617
		c4.0391,0,7.2857,3.2506,7.2857,7.2844v27.6776c0,4.0337-3.2466,7.2844-7.2857,7.2844H174.9511
		c-4.0338,0-7.2844-3.2507-7.2844-7.2844v-27.6776C167.6667,193.0432,170.9173,189.7925,174.9511,189.7925z"/>
	<g style="display:inline;">
		<path style="fill:#B2DF8A;" d="M88.2726,227.9473c0,0,0.2517,0.1902,0.7237,0.5469c0.4594,0.3681,1.1598,0.8839,1.9988,1.5876
			c1.7055,1.3827,4.0852,3.409,6.8596,5.9138c2.7672,2.5114,5.9146,5.5142,9.1891,8.8196c1.6393,1.6509,3.3137,3.3744,4.9845,5.1533
			c1.6832,1.7677,3.3495,3.6028,5.0214,5.4328c1.6472,1.8523,3.3027,3.6971,4.886,5.5548c1.6007,1.842,3.1353,3.6916,4.6111,5.4897
			c2.9491,3.5987,5.6092,7.0407,7.8192,10.0541c2.2029,3.0198,3.9697,5.5984,5.1667,7.4394c0.6121,0.9082,1.0523,1.6584,1.37,2.1542
			c0.3053,0.5069,0.4682,0.7772,0.4682,0.7772s-0.252-0.19-0.7245-0.5463c-0.4601-0.3674-1.1607-0.8831-2.0005-1.5861
			c-1.7069-1.3814-4.0884-3.4062-6.8634-5.9105c-2.768-2.5106-5.9155-5.5134-9.1889-8.8198
			c-1.6353-1.6544-3.3158-3.3725-4.9818-5.1557c-1.6835-1.7675-3.3466-3.6053-5.0181-5.4358
			c-1.6467-1.8527-3.2991-3.7003-4.8827-5.5578c-1.596-1.8463-3.1365-3.6904-4.6085-5.4921
			c-2.9479-3.5997-5.6081-7.0416-7.8189-10.0543c-2.2035-3.0193-3.9721-5.5963-5.1704-7.4361
			c-0.6129-0.9075-1.0533-1.6576-1.3717-2.1526C88.4358,228.2174,88.2726,227.9473,88.2726,227.9473z"/>
	</g>
	<g style="display:inline;">
		<path style="fill:#B2DF8A;" d="M415.2976,228.4463c0,0-0.9344,0.2893-2.6862,0.8317c-1.7559,0.5259-4.3228,1.3321-7.6064,2.2896
			c-3.2815,0.9663-7.2617,2.158-11.8446,3.4536c-4.5784,1.3139-9.7435,2.7978-15.3958,4.3445
			c-5.6467,1.5693-11.764,3.2691-18.2545,4.9839c-6.4862,1.7324-13.3187,3.5902-20.4153,5.3948
			c-7.0951,1.8112-14.406,3.7674-21.8724,5.6012c-7.4612,1.8552-15.0407,3.7399-22.6203,5.6246
			c-7.5949,1.8221-15.1898,3.6441-22.666,5.4377c-7.476,1.7945-14.8642,3.4339-21.9973,5.0889
			c-7.1309,1.6641-14.0497,3.1678-20.6063,4.6119c-6.5515,1.4647-12.7634,2.7767-18.4994,3.9799
			c-5.7299,1.2281-10.9977,2.2911-15.6676,3.23c-4.6651,0.9586-8.7469,1.7339-12.1052,2.3851
			c-3.356,0.6608-6.0059,1.1267-7.807,1.4674c-1.8051,0.3245-2.7678,0.4975-2.7678,0.4975s0.9343-0.2896,2.686-0.8327
			c1.7557-0.5269,4.3225-1.3333,7.6059-2.2918c3.2811-0.9681,7.2614-2.1592,11.844-3.4561
			c4.5778-1.3167,9.7434-2.7983,15.3953-4.3463c5.6458-1.5728,11.7642-3.2682,18.2544-4.9844
			c6.4851-1.7368,13.3193-3.5875,20.4157-5.3934c7.0941-1.8151,14.4074-3.7614,21.8701-5.6104
			c7.4624-1.85,15.0433-3.7293,22.6242-5.6087c7.5962-1.8167,15.1924-3.6334,22.6698-5.4218
			c7.4722-1.8098,14.8629-3.4393,21.9951-5.0981c7.1306-1.6654,14.0512-3.162,20.6066-4.6105
			c6.5512-1.4661,12.7642-2.7736,18.4993-3.9804c5.7296-1.2294,10.9978-2.2902,15.6671-3.2318
			c4.6648-0.9599,8.7467-1.7345,12.1046-2.3876c3.3558-0.6618,6.0056-1.128,7.8065-1.4696
			C414.335,228.6197,415.2976,228.4463,415.2976,228.4463z"/>
	</g>
	<g style="display:inline;">
		<path style="fill:#A6CEE3;" d="M594.6317,227.5049c0,0-0.1965,0.2809-0.5651,0.8075c-0.3805,0.5146-0.9132,1.2948-1.6411,2.2378
			c-1.4296,1.9122-3.5259,4.59-6.1187,7.726c-2.5997,3.1291-5.7098,6.7027-9.1351,10.4385
			c-1.7107,1.8698-3.497,3.7834-5.3412,5.6987c-1.8324,1.9271-3.7355,3.8432-5.6332,5.7648
			c-1.9212,1.898-3.8345,3.8039-5.7621,5.6359c-1.9109,1.8486-3.8304,3.629-5.6966,5.3433c-3.735,3.426-7.3089,6.5357-10.439,9.1344
			c-3.1368,2.592-5.8165,4.6864-7.7301,6.1145c-0.9438,0.7271-1.7242,1.2596-2.2396,1.6393
			c-0.5271,0.368-0.8082,0.5643-0.8082,0.5643s0.1963-0.2811,0.5643-0.8082c0.3798-0.5153,0.9124-1.2956,1.6395-2.2394
			c1.4283-1.9135,3.5229-4.593,6.1151-7.7296c2.599-3.1299,5.709-6.7035,9.1353-10.4383c1.7144-1.8661,3.4951-3.7854,5.3438-5.6961
			c1.8322-1.9274,3.7382-3.8406,5.6364-5.7616c1.9216-1.8976,3.8379-3.8005,5.7652-5.6327
			c1.9154-1.8441,3.8292-3.6303,5.6992-5.3408c3.7361-3.4249,7.3099-6.5347,10.4392-9.1342
			c3.1362-2.5925,5.8141-4.6886,7.7265-6.1181c0.9431-0.7278,1.7233-1.2605,2.2379-1.6409
			C594.3508,227.7014,594.6317,227.5049,594.6317,227.5049z"/>
	</g>
	<g style="display:inline;">
		<path style="fill:#A6CEE3;" d="M269.1533,229c0,0,0.7719,0.1689,2.2192,0.4856c1.4424,0.333,3.5683,0.787,6.2537,1.4324
			c2.688,0.6368,5.9574,1.3919,9.6865,2.3284c3.7346,0.9185,7.9483,1.9532,12.5239,3.1532
			c4.5822,1.1776,9.5462,2.4536,14.7721,3.8851c5.231,1.4142,10.7566,2.875,16.438,4.5018
			c5.6833,1.6203,11.5812,3.2112,17.5286,4.9796c5.9538,1.7472,12.0021,3.5222,18.0504,5.2971
			c6.0298,1.8367,12.0596,3.6734,17.9952,5.4815c5.9359,1.8071,11.7401,3.7104,17.3773,5.4847
			c5.6399,1.7654,11.0609,3.5753,16.2068,5.2738c5.152,1.6781,10.0015,3.3365,14.4756,4.8752
			c4.4814,1.5141,8.571,2.9638,12.1947,4.2521c3.6296,1.2688,6.776,2.4346,9.371,3.382c2.5978,0.938,4.6232,1.7275,6.0109,2.2432
			c1.383,0.5316,2.1205,0.8152,2.1205,0.8152s-0.772-0.1686-2.2195-0.4847c-1.4427-0.332-3.5686-0.7859-6.2543-1.4302
			c-2.6885-0.635-5.9578-1.3907-9.6873-2.326c-3.7354-0.9158-7.9485-1.9527-12.5244-3.1513
			c-4.5833-1.1741-9.546-2.4544-14.7722-3.8846c-5.2324-1.4098-10.7558-2.8777-16.4376-4.5032
			c-5.6845-1.6165-11.5794-3.2172-17.5313-4.9704c-5.9522-1.7524-11.999-3.5326-18.0457-5.3128
			c-6.0282-1.842-12.0565-3.6839-17.9905-5.4971c-5.9404-1.792-11.7417-3.7051-17.3801-5.4756
			c-5.6403-1.7641-11.0591-3.5811-16.2064-5.2752c-5.1524-1.6768-10.0005-3.3396-14.4757-4.8746
			c-4.4818-1.5127-8.5707-2.9646-12.1953-4.2502c-3.63-1.2676-6.7762-2.434-9.3717-3.3795c-2.5981-0.937-4.6235-1.7263-6.0115-2.241
			C269.891,229.2832,269.1533,229,269.1533,229z"/>
	</g>
	<g style="display:inline;">
		<path d="M507.0584,315.2814c0,0-0.689,0.2651-1.9809,0.7623c-1.2967,0.4809-3.1883,1.2205-5.6158,2.0942
			c-2.425,0.8823-5.3642,1.972-8.7564,3.1513c-3.3869,1.1975-7.2076,2.55-11.3966,3.9541c-4.1824,1.4265-8.7134,2.9717-13.53,4.524
			c-4.8115,1.5697-9.8764,3.2555-15.15,4.8837c-5.2718,1.6347-10.6946,3.4074-16.2497,5.0567
			c-5.5489,1.6705-11.1858,3.3674-16.8228,5.0644c-5.6552,1.6351-11.3103,3.2703-16.8771,4.8799
			c-5.5666,1.6104-11.0815,3.0704-16.3987,4.5508c-5.3145,1.4894-10.4824,2.8257-15.3777,4.1106
			c-4.8893,1.3054-9.5331,2.4676-13.822,3.5327c-4.2816,1.0896-8.2247,2.0265-11.7207,2.8537
			c-3.4902,0.8466-6.5506,1.525-9.0671,2.0964c-2.5138,0.5807-4.5044,0.9845-5.855,1.2823
			c-1.3553,0.282-2.0781,0.4324-2.0781,0.4324s0.6889-0.2655,1.9806-0.7633c1.2964-0.4818,3.188-1.2217,5.6152-2.0964
			c2.4244-0.8842,5.3638-1.9731,8.7556-3.1538c3.3861-1.2002,7.2074-2.5504,11.396-3.9559
			c4.1814-1.4301,8.7137-2.9709,13.5298-4.5245c4.8102-1.5741,9.8772-3.2528,15.1505-4.8823
			c5.2706-1.6385,10.6964-3.4014,16.247-5.0658c5.5504-1.6653,11.1889-3.357,16.8274-5.0487
			c5.6567-1.6299,11.3134-3.2597,16.8818-4.8641c5.5621-1.6256,11.08-3.0757,16.396-4.5599
			c5.3141-1.4907,10.4841-2.8199,15.3782-4.1092c4.8889-1.3067,9.534-2.4646,13.8218-3.5332
			c4.2813-1.091,8.225-2.0257,11.7202-2.8555c3.4898-0.8479,6.5504-1.5257,9.0664-2.0988c2.5135-0.5818,4.504-0.9857,5.8543-1.2846
			C506.3357,315.4321,507.0584,315.2814,507.0584,315.2814z"/>
	</g>
	<g style="display:inline;">
		<path d="M158.9526,316.4885c0,0,0.679,0.1462,1.952,0.4203c1.2681,0.2903,3.1384,0.6819,5.4981,1.2477
			c2.3624,0.5572,5.2365,1.2156,8.5118,2.0411c3.2808,0.8075,6.9826,1.717,10.9992,2.7802c4.0234,1.041,8.382,2.1688,12.967,3.4436
			c4.5903,1.2574,9.4403,2.553,14.4221,4.0086c4.9838,1.4492,10.1593,2.8633,15.3718,4.4518
			c5.2189,1.5674,10.5207,3.1596,15.8225,4.7519c5.2872,1.6396,10.5768,3.2715,15.7659,4.9358
			c5.2006,1.6272,10.2803,3.353,15.2169,4.9559c4.9393,1.5939,9.6823,3.2378,14.1855,4.7789
			c4.5094,1.5208,8.7507,3.0303,12.6635,4.4314c3.9203,1.3767,7.4949,2.7003,10.6623,3.8768
			c3.1734,1.1571,5.9216,2.2253,8.1888,3.0924c2.27,0.8577,4.0375,1.584,5.2495,2.0567c1.2072,0.4886,1.851,0.7491,1.851,0.7491
			s-0.679-0.1458-1.9523-0.4193c-1.2684-0.2894-3.1388-0.6807-5.4988-1.2455c-2.3629-0.5554-5.2369-1.2144-8.5125-2.0387
			c-3.2816-0.8048-6.9828-1.7165-10.9998-2.7784c-4.0245-1.0374-8.3818-2.1696-12.9672-3.443
			c-4.5916-1.2531-9.4395-2.5557-14.4217-4.01c-4.985-1.4453-10.1575-2.8693-15.3745-4.4427
			c-5.2285-1.5362-10.5219-3.1557-15.8177-4.7675c-5.2812-1.6591-10.5624-3.3183-15.7611-4.9515
			c-5.2052-1.6121-10.2819-3.3477-15.2197-4.9468c-4.9397-1.5926-9.6806-3.2436-14.185-4.7803
			c-4.5098-1.5194-8.7498-3.0333-12.6637-4.4309c-3.9207-1.3753-7.4946-2.7011-10.6629-3.875
			c-3.1738-1.1558-5.9218-2.2247-8.1895-3.09c-2.2703-0.8567-4.0379-1.5828-5.2502-2.0545
			C159.5965,316.7488,158.9526,316.4885,158.9526,316.4885z"/>
	</g>
	<path style="display:inline;fill-rule:evenodd;clip-rule:evenodd;fill:none;" d="M291.3389,368.5108h71.1278
		c2.7737,0,5.0089,2.2353,5.0089,5.0089v19.0327c0,2.7787-2.2352,5.0089-5.0089,5.0089h-71.1278
		c-2.7737,0-5.0089-2.2302-5.0089-5.0089v-19.0327C286.33,370.7461,288.5652,368.5108,291.3389,368.5108z"/>
	<path style="display:inline;fill:#FFFFFF;stroke:#000000;stroke-width:2;stroke-linejoin:round;" d="M293.4021,368.5108h75.6069
		c2.9483,0,5.3243,2.2353,5.3243,5.0089v19.0327c0,2.7787-2.376,5.0089-5.3243,5.0089h-75.6069
		c-2.9484,0-5.3243-2.2302-5.3243-5.0089v-19.0327C288.0778,370.7461,290.4538,368.5108,293.4021,368.5108z"/>
	<path style="display:inline;fill:none;stroke:#B2DF8A;stroke-width:3;stroke-linecap:round;" d="M86.8289,287.8395h132.4632
		c2.8401,0,5.1285,2.1863,5.1285,4.9112v18.6556c0,2.7198-2.2883,4.9112-5.1285,4.9112H86.8289
		c-2.8401,0-5.1285-2.1914-5.1285-4.9112v-18.6556C81.7004,290.0258,83.9887,287.8395,86.8289,287.8395z"/>
	<path style="display:inline;fill:none;stroke:#A6CEE3;stroke-width:3;" d="M425.377,287.1886h136.6705
		c2.9303,0,5.2858,2.1864,5.2858,4.9113v18.6556c0,2.7198-2.3555,4.9112-5.2858,4.9112H425.377
		c-2.9303,0-5.2858-2.1914-5.2858-4.9112v-18.6556C420.0912,289.3749,422.4467,287.1886,425.377,287.1886z"/>
</g>
<g id="Step_2" style="display:none;">
	<g style="display:inline;">
		<path style="fill:#1F78B4;" d="M461.965,135.5298c0,0-0.131,0.2604-0.3766,0.7487c-0.2607,0.4755-0.6112,1.2-1.1199,2.0686
			c-0.9814,1.768-2.4465,4.2398-4.3249,7.1033c-1.8747,2.8665-4.1586,6.1283-6.7222,9.5232
			c-1.2794,1.6996-2.6247,3.4359-4.0284,5.1689c-1.3887,1.7458-2.8517,3.4746-4.308,5.2093
			c-1.4857,1.7095-2.9615,3.4274-4.4696,5.0712c-1.4873,1.6616-2.9996,3.2552-4.4741,4.788
			c-2.9522,3.063-5.8179,5.8275-8.3578,8.1256c-2.5367,2.3009-4.7506,4.1329-6.3462,5.3761
			c-0.7796,0.6371-1.4408,1.0962-1.8706,1.4271c-0.4446,0.3183-0.6817,0.488-0.6817,0.488s0.1307-0.2607,0.3757-0.7495
			c0.2598-0.4762,0.6101-1.2009,1.1179-2.0703c0.9791-1.77,2.4433-4.2426,4.3204-7.1071c1.8737-2.8674,4.1575-6.1292,6.7225-9.523
			c1.2841-1.6955,2.6223-3.438,4.0316-5.1662c1.3885-1.746,2.8551-3.4717,4.3119-5.2059c1.4863-1.709,2.9658-3.4237,4.4736-5.0678
			c1.4929-1.6568,2.9981-3.2565,4.4773-4.7853c2.9536-3.0618,5.8191-5.8264,8.3581-8.1253c2.5354-2.302,4.7484-4.1348,6.3417-5.3799
			c0.7787-0.638,1.4396-1.0972,1.8686-1.4289C461.7282,135.6999,461.965,135.5298,461.965,135.5298z"/>
	</g>
	<g style="display:inline;">
		<path style="fill:#1F78B4;" d="M509.0513,135.5298c0,0,0.291,0.1699,0.8367,0.4883c0.5347,0.3314,1.3422,0.7901,2.3241,1.4276
			c1.9879,1.2469,4.7782,3.0862,8.0556,5.3766c3.2711,2.2978,7.0165,5.0615,10.9442,8.1226
			c1.9656,1.5285,3.9797,3.1279,5.9995,4.7846c2.0307,1.6439,4.0554,3.3586,6.0851,5.0675c2.0081,1.7342,4.0234,3.46,5.9668,5.2062
			c1.9586,1.7284,3.8505,3.4711,5.6734,5.1669c3.6434,3.3945,6.9632,6.6572,9.7475,9.5257c2.7782,2.8757,5.033,5.3427,6.5767,7.1104
			c0.7838,0.8699,1.364,1.5951,1.7749,2.0716c0.4001,0.4891,0.6135,0.75,0.6135,0.75s-0.2913-0.1696-0.8374-0.4875
			c-0.5353-0.3306-1.343-0.7892-2.3256-1.4259c-1.9891-1.2455-4.7809-3.0829-8.0588-5.3727
			c-3.2717-2.297-7.0173-5.0605-10.944-8.1229c-1.9622-1.5325-3.9815-3.1258-5.9972-4.7873
			c-2.0309-1.6436-4.053-3.3615-6.0822-5.0709c-2.0077-1.7347-4.0203-3.4636-5.9639-5.2096
			c-1.9545-1.7332-3.8516-3.4698-5.6711-5.1696c-3.6424-3.3957-6.9623-6.6583-9.7473-9.526
			c-2.7786-2.8751-5.0351-5.3403-6.5799-7.1066c-0.7844-0.8691-1.3648-1.5941-1.7764-2.0698
			C509.2649,135.7905,509.0513,135.5298,509.0513,135.5298z"/>
	</g>
	<path style="display:inline;fill:#B2DF8A;stroke:#1F78B4;stroke-width:3;stroke-linejoin:round;" d="M344.4421,190.7356h143.7224
		c3.9259,0,7.0896,3.0667,7.0896,6.8722v26.1115c0,3.8055-3.1637,6.8722-7.0896,6.8722H344.4421
		c-3.9259,0-7.0857-3.0668-7.0857-6.8722v-26.1115C337.3564,193.8022,340.5162,190.7356,344.4421,190.7356z"/>
	<path style="display:inline;fill:#A6CEE3;stroke:#1F78B4;stroke-width:3;stroke-linejoin:round;" d="M509.7822,190.7356h144.6687
		c3.9519,0,7.1365,3.0667,7.1365,6.8722v26.1115c0,3.8055-3.1846,6.8722-7.1365,6.8722H509.7822
		c-3.9519,0-7.1366-3.0668-7.1366-6.8722v-26.1115C502.6456,193.8022,505.8303,190.7356,509.7822,190.7356z"/>
</g>
<g id="Step1">
	<path style="fill:none;stroke:#1F78B4;stroke-width:3;stroke-linejoin:round;" d="M425.377,106.0518h136.6705
		c2.9303,0,5.2858,2.1864,5.2858,4.9112v18.6556c0,2.7198-2.3555,4.9112-5.2858,4.9112H425.377
		c-2.9303,0-5.2858-2.1914-5.2858-4.9112V110.963C420.0912,108.2381,422.4467,106.0518,425.377,106.0518z"/>
	<path style="fill:none;stroke:#33A02C;stroke-width:3;stroke-linejoin:round;" d="M86.8289,106.0518h132.4632
		c2.8401,0,5.1285,2.1864,5.1285,4.9112v18.6556c0,2.7198-2.2883,4.9112-5.1285,4.9112H86.8289
		c-2.8401,0-5.1285-2.1914-5.1285-4.9112V110.963C81.7004,108.2381,83.9887,106.0518,86.8289,106.0518z"/>
	<g>
		<path d="M333.7766,59.4301c0,0,0.6331,0.1208,1.8202,0.3472c1.1824,0.2427,2.9265,0.5643,5.1267,1.0413
			c2.2027,0.4684,4.8827,1.0189,7.9364,1.721c3.0589,0.684,6.5105,1.4541,10.2552,2.3657
			c3.7512,0.8892,7.8148,1.8526,12.0893,2.9539c4.2794,1.0838,8.8011,2.1962,13.4453,3.4628c4.646,1.2602,9.4711,2.4786,14.33,3.869
			c4.865,1.3692,9.8073,2.7601,14.7495,4.151c4.9285,1.4385,9.8593,2.8692,14.6961,4.3359
			c4.8477,1.4293,9.5822,2.961,14.1836,4.3757c4.604,1.4056,9.0246,2.8681,13.2217,4.2371
			c4.203,1.3485,8.1559,2.6956,11.8026,3.9467c3.6537,1.2266,6.9851,2.4129,9.9369,3.4678
			c2.9575,1.0353,5.5185,1.9977,7.6312,2.7776c2.1155,0.7705,3.7624,1.4285,4.8919,1.8544c1.1248,0.442,1.7248,0.6777,1.7248,0.6777
			s-0.6332-0.1204-1.8205-0.3462c-1.1827-0.2418-2.9268-0.5631-5.1273-1.0391c-2.2032-0.4666-4.883-1.0177-7.9371-1.7185
			c-3.0597-0.6813-6.5106-1.4537-10.2557-2.3638c-3.7522-0.8856-7.8146-1.8535-12.0894-2.9533
			c-4.2807-1.0794-8.8004-2.1989-13.4449-3.4642c-4.6471-1.2563-9.4694-2.4846-14.3326-3.8599
			c-4.8741-1.3379-9.8084-2.7562-14.745-4.1668c-4.9228-1.4581-9.8457-2.9163-14.6916-4.3516
			c-4.8521-1.4141-9.5838-2.9557-14.1863-4.3665c-4.6044-1.4043-9.0229-2.8739-13.2213-4.2385
			c-4.2034-1.3472-8.155-2.6986-11.8027-3.9462c-3.6541-1.2252-6.9848-2.4138-9.9374-3.466
			c-2.9578-1.0341-5.5187-1.9971-7.6319-2.7752c-2.1158-0.7694-3.7628-1.4272-4.8925-1.8522
			C334.3767,59.6654,333.7766,59.4301,333.7766,59.4301z"/>
	</g>
	<g>
		<path d="M333.7766,59.4301c0,0-0.6913,0.2359-1.9876,0.6782c-1.3004,0.4259-3.1989,1.0852-5.6324,1.856
			c-2.4313,0.7795-5.379,1.7444-8.7781,2.7801c-3.3945,1.0539-7.2238,2.2444-11.4194,3.4711
			c-4.1899,1.2493-8.729,2.6025-13.5509,3.9508c-4.8175,1.3659-9.89,2.8371-15.1668,4.2421
			c-5.2753,1.4115-10.705,2.9546-16.2611,4.3688c-5.5507,1.4357-11.1895,2.8941-16.8284,4.3526
			c-5.6546,1.3959-11.3092,2.7919-16.8754,4.166c-5.566,1.375-11.0755,2.6019-16.3901,3.8575
			c-5.3123,1.2647-10.4739,2.3826-15.364,3.4607c-4.8849,1.0987-9.5216,2.0648-13.8037,2.9487
			c-4.2758,0.9087-8.2111,1.6792-11.7,2.3587c-3.484,0.6992-6.5365,1.2485-9.0471,1.7136
			c-2.5082,0.4746-4.4924,0.7944-5.8394,1.0353c-1.3511,0.2248-2.0717,0.3447-2.0717,0.3447s0.6913-0.2362,1.9873-0.6792
			c1.3002-0.4268,3.1986-1.0864,5.6318-1.8582c2.4308-0.7813,5.3787-1.7456,8.7775-2.7825
			c3.3938-1.0566,7.2237-2.2449,11.419-3.4729c4.189-1.2529,8.7292-2.6016,13.5508-3.9513
			c4.8164-1.3703,9.8906-2.8344,15.1672-4.2407c5.2743-1.4154,10.7065-2.9485,16.2588-4.3781
			c5.552-1.4304,11.1922-2.8835,16.8324-4.3367c5.6559-1.3906,11.3119-2.7812,16.8794-4.1501
			c5.5621-1.3903,11.0742-2.6073,16.3878-3.8667c5.312-1.266,10.4753-2.3768,15.3643-3.4593
			c4.8845-1.1001,9.5224-2.0618,13.8036-2.9493c4.2755-0.9101,8.2113-1.6783,11.6995-2.3606
			c3.4836-0.7005,6.5363-1.2492,9.0464-1.7161c2.508-0.4757,4.492-0.7957,5.8389-1.0376
			C333.0562,59.5503,333.7766,59.4301,333.7766,59.4301z"/>
	</g>
	<path style="fill:#FFFFFF;stroke:#000000;stroke-width:2;stroke-linejoin:round;" d="M297.2257,30.3796h73.1019
		c2.8506,0,5.1479,2.2353,5.1479,5.0089v19.0327c0,2.7787-2.2973,5.0089-5.1479,5.0089h-73.1019
		c-2.8506,0-5.1479-2.2302-5.1479-5.0089V35.3885C292.0778,32.6148,294.3751,30.3796,297.2257,30.3796z"/>
</g>
</svg>
